<?xml version="1.0" encoding="UTF-8" standalone="no"?>
<svg width="50px" height="58px" viewBox="0 0 50 58" version="1.1" xmlns="http://www.w3.org/2000/svg" xmlns:xlink="http://www.w3.org/1999/xlink">
    <!-- Generator: Sketch 3.7.1 (28215) - http://www.bohemiancoding.com/sketch -->
    <title>Group</title>
    <desc>Created with Sketch.</desc>
    <defs></defs>
    <g id="Page-1" stroke="none" stroke-width="1" fill="none" fill-rule="evenodd">
        <g id="Artboard-1" transform="translate(-230.000000, -158.000000)" fill="#4359C4">
            <g id="Group" transform="translate(230.000000, 158.000000)">
                <g id="noun_32974_cc">
                    <path d="M49.97,2.20083333 C49.9591667,2.11333333 49.9516667,2.025 49.9316667,1.94083333 C49.9283333,1.92583333 49.9291667,1.91 49.925,1.89416667 C49.9108333,1.83916667 49.8858333,1.79083333 49.8683333,1.7375 C49.84,1.6475 49.8125,1.55666667 49.7733333,1.4725 C49.7408333,1.39916667 49.7,1.3325 49.6608333,1.26416667 C49.62,1.19333333 49.5816667,1.1225 49.535,1.05583333 C49.4841667,0.985833333 49.4275,0.9225 49.3716667,0.858333333 C49.3225,0.803333333 49.2758333,0.746666667 49.2225,0.695833333 C49.1591667,0.635 49.09,0.5825 49.0208333,0.529166667 C48.9633333,0.485 48.9066667,0.44 48.845,0.4 C48.7716667,0.3525 48.6925,0.314166667 48.615,0.275 C48.55,0.243333333 48.4875,0.209166667 48.4191667,0.181666667 C48.3325,0.1475 48.2433333,0.124166667 48.1525,0.0983333333 C48.0875,0.0808333333 48.0241667,0.0608333333 47.9566667,0.0475 C47.8566667,0.03 47.7541667,0.0233333333 47.6516667,0.0166666667 C47.5991667,0.0125 47.5516667,0 47.5,0 C47.485,0 47.4716667,0.00416666667 47.4566667,0.005 C47.3666667,0.00666666667 47.2766667,0.02 47.1858333,0.0316666667 C47.1041667,0.0425 47.0225,0.0491666667 46.9433333,0.0666666667 C46.9266667,0.0708333333 46.91,0.07 46.8933333,0.075 L16.8933333,7.575 C16.8358333,7.58916667 16.785,7.61583333 16.7291667,7.63333333 C16.6425,7.66166667 16.5541667,7.68833333 16.4716667,7.72583333 C16.3983333,7.75833333 16.3308333,7.8 16.2625,7.84 C16.1916667,7.88083333 16.12,7.91916667 16.0533333,7.96583333 C15.9858333,8.015 15.925,8.06916667 15.8625,8.12333333 C15.8041667,8.175 15.7441667,8.22416667 15.6908333,8.28 C15.6358333,8.33916667 15.5866667,8.40333333 15.5366667,8.4675 C15.4875,8.53083333 15.4375,8.5925 15.3941667,8.66 C15.3516667,8.72666667 15.3175,8.79666667 15.2816667,8.8675 C15.2441667,8.94 15.2058333,9.01166667 15.1758333,9.08916667 C15.1458333,9.16583333 15.125,9.24583333 15.1025,9.325 C15.0816667,9.4 15.0583333,9.47416667 15.0441667,9.5525 C15.0275,9.64166667 15.0233333,9.735 15.0166667,9.82666667 C15.0133333,9.88583333 15,9.94166667 15,10 L15,38.8525 C13.5266667,37.9983333 11.8225,37.5 10,37.5 C4.48583333,37.5 0,41.9858333 0,47.5 C0,53.0141667 4.48583333,57.5 10,57.5 C15.5141667,57.5 20,53.0141667 20,47.5 L20,24.4525 L45,18.2025 L45,33.8525 C43.5266667,32.9983333 41.8225,32.5 40,32.5 C34.4858333,32.5 30,36.9858333 30,42.5 C30,48.0141667 34.4858333,52.5 40,52.5 C45.5141667,52.5 50,48.0141667 50,42.5 L50,2.5 C50,2.48333333 49.995,2.4675 49.995,2.45083333 C49.9933333,2.36833333 49.9808333,2.28333333 49.97,2.20083333 L49.97,2.20083333 Z M10,52.5 C7.2425,52.5 5,50.2575 5,47.5 C5,44.7425 7.2425,42.5 10,42.5 C12.7575,42.5 15,44.7425 15,47.5 C15,50.2575 12.7575,52.5 10,52.5 L10,52.5 Z M20,19.2975 L20,11.9525 L45,5.7025 L45,13.0475 L20,19.2975 L20,19.2975 Z M40,47.5 C37.2425,47.5 35,45.2575 35,42.5 C35,39.7425 37.2425,37.5 40,37.5 C42.7575,37.5 45,39.7425 45,42.5 C45,45.2575 42.7575,47.5 40,47.5 L40,47.5 Z" id="Shape"></path>
                </g>
            </g>
        </g>
    </g>
</svg>